<mxfile host="app.diagrams.net" agent="Mozilla/5.0 (Windows NT 10.0; Win64; x64) AppleWebKit/537.36 (KHTML, like Gecko) Chrome/127.0.0.0 Safari/537.36" version="24.7.7">
  <diagram id="C5RBs43oDa-KdzZeNtuy" name="Page-1">
    <mxGraphModel dx="4684" dy="1830" grid="1" gridSize="10" guides="1" tooltips="1" connect="1" arrows="1" fold="1" page="1" pageScale="1" pageWidth="827" pageHeight="1169" math="0" shadow="0">
      <root>
        <mxCell id="WIyWlLk6GJQsqaUBKTNV-0" />
        <mxCell id="WIyWlLk6GJQsqaUBKTNV-1" parent="WIyWlLk6GJQsqaUBKTNV-0" />
        <mxCell id="riecOVi5T7TGMhFxxTop-0" value="Staff" style="shape=umlActor;verticalLabelPosition=bottom;verticalAlign=top;html=1;outlineConnect=0;" vertex="1" parent="WIyWlLk6GJQsqaUBKTNV-1">
          <mxGeometry x="-390" y="430" width="30" height="60" as="geometry" />
        </mxCell>
        <mxCell id="riecOVi5T7TGMhFxxTop-1" value="Client" style="shape=umlActor;verticalLabelPosition=bottom;verticalAlign=top;html=1;outlineConnect=0;" vertex="1" parent="WIyWlLk6GJQsqaUBKTNV-1">
          <mxGeometry x="430" y="885" width="30" height="60" as="geometry" />
        </mxCell>
        <mxCell id="riecOVi5T7TGMhFxxTop-2" value="Admin" style="shape=umlActor;verticalLabelPosition=bottom;verticalAlign=top;html=1;outlineConnect=0;" vertex="1" parent="WIyWlLk6GJQsqaUBKTNV-1">
          <mxGeometry x="-270" y="1265" width="30" height="60" as="geometry" />
        </mxCell>
        <mxCell id="riecOVi5T7TGMhFxxTop-3" value="" style="rounded=0;whiteSpace=wrap;html=1;" vertex="1" parent="WIyWlLk6GJQsqaUBKTNV-1">
          <mxGeometry x="-95" y="75" width="270" height="1420" as="geometry" />
        </mxCell>
        <mxCell id="riecOVi5T7TGMhFxxTop-4" value="" style="ellipse;whiteSpace=wrap;html=1;" vertex="1" parent="WIyWlLk6GJQsqaUBKTNV-1">
          <mxGeometry x="-20" y="110" width="120" height="80" as="geometry" />
        </mxCell>
        <mxCell id="riecOVi5T7TGMhFxxTop-5" value="" style="ellipse;whiteSpace=wrap;html=1;" vertex="1" parent="WIyWlLk6GJQsqaUBKTNV-1">
          <mxGeometry x="-20" y="230" width="120" height="80" as="geometry" />
        </mxCell>
        <mxCell id="riecOVi5T7TGMhFxxTop-6" value="" style="ellipse;whiteSpace=wrap;html=1;" vertex="1" parent="WIyWlLk6GJQsqaUBKTNV-1">
          <mxGeometry x="-20" y="340" width="120" height="80" as="geometry" />
        </mxCell>
        <mxCell id="riecOVi5T7TGMhFxxTop-7" value="" style="ellipse;whiteSpace=wrap;html=1;" vertex="1" parent="WIyWlLk6GJQsqaUBKTNV-1">
          <mxGeometry x="-20" y="470" width="120" height="80" as="geometry" />
        </mxCell>
        <mxCell id="riecOVi5T7TGMhFxxTop-8" value="" style="ellipse;whiteSpace=wrap;html=1;" vertex="1" parent="WIyWlLk6GJQsqaUBKTNV-1">
          <mxGeometry x="-20" y="610" width="120" height="80" as="geometry" />
        </mxCell>
        <mxCell id="riecOVi5T7TGMhFxxTop-9" value="" style="ellipse;whiteSpace=wrap;html=1;" vertex="1" parent="WIyWlLk6GJQsqaUBKTNV-1">
          <mxGeometry x="-10" y="900" width="120" height="80" as="geometry" />
        </mxCell>
        <mxCell id="riecOVi5T7TGMhFxxTop-10" value="" style="ellipse;whiteSpace=wrap;html=1;" vertex="1" parent="WIyWlLk6GJQsqaUBKTNV-1">
          <mxGeometry x="-10" y="1210" width="120" height="80" as="geometry" />
        </mxCell>
        <mxCell id="riecOVi5T7TGMhFxxTop-11" value="" style="ellipse;whiteSpace=wrap;html=1;" vertex="1" parent="WIyWlLk6GJQsqaUBKTNV-1">
          <mxGeometry x="-20" y="760" width="120" height="80" as="geometry" />
        </mxCell>
        <mxCell id="riecOVi5T7TGMhFxxTop-12" value="" style="ellipse;whiteSpace=wrap;html=1;" vertex="1" parent="WIyWlLk6GJQsqaUBKTNV-1">
          <mxGeometry x="-10" y="1060" width="120" height="80" as="geometry" />
        </mxCell>
        <mxCell id="riecOVi5T7TGMhFxxTop-13" value="" style="ellipse;whiteSpace=wrap;html=1;" vertex="1" parent="WIyWlLk6GJQsqaUBKTNV-1">
          <mxGeometry x="-10" y="1370" width="120" height="80" as="geometry" />
        </mxCell>
        <mxCell id="riecOVi5T7TGMhFxxTop-14" value="Manage Emergency&lt;div&gt;Contacts&lt;/div&gt;" style="text;html=1;align=center;verticalAlign=middle;whiteSpace=wrap;rounded=0;" vertex="1" parent="WIyWlLk6GJQsqaUBKTNV-1">
          <mxGeometry x="10" y="135" width="60" height="30" as="geometry" />
        </mxCell>
        <mxCell id="riecOVi5T7TGMhFxxTop-15" value="Manage Vaccination Records&lt;div&gt;&lt;br&gt;&lt;/div&gt;" style="text;html=1;align=center;verticalAlign=middle;whiteSpace=wrap;rounded=0;" vertex="1" parent="WIyWlLk6GJQsqaUBKTNV-1">
          <mxGeometry x="10" y="255" width="60" height="30" as="geometry" />
        </mxCell>
        <mxCell id="riecOVi5T7TGMhFxxTop-16" value="Pet Check In and Out" style="text;html=1;align=center;verticalAlign=middle;whiteSpace=wrap;rounded=0;" vertex="1" parent="WIyWlLk6GJQsqaUBKTNV-1">
          <mxGeometry x="10" y="365" width="60" height="30" as="geometry" />
        </mxCell>
        <mxCell id="riecOVi5T7TGMhFxxTop-17" value="Pet Grooming&amp;nbsp;&lt;br&gt;Services" style="text;html=1;align=center;verticalAlign=middle;whiteSpace=wrap;rounded=0;" vertex="1" parent="WIyWlLk6GJQsqaUBKTNV-1">
          <mxGeometry x="10" y="495" width="60" height="30" as="geometry" />
        </mxCell>
        <mxCell id="riecOVi5T7TGMhFxxTop-18" value="Manage Pet Activities&amp;nbsp;" style="text;html=1;align=center;verticalAlign=middle;whiteSpace=wrap;rounded=0;" vertex="1" parent="WIyWlLk6GJQsqaUBKTNV-1">
          <mxGeometry x="10" y="635" width="60" height="30" as="geometry" />
        </mxCell>
        <mxCell id="riecOVi5T7TGMhFxxTop-19" value="Customer Feedback and Reviews&lt;div&gt;&lt;br&gt;&lt;/div&gt;" style="text;html=1;align=center;verticalAlign=middle;whiteSpace=wrap;rounded=0;" vertex="1" parent="WIyWlLk6GJQsqaUBKTNV-1">
          <mxGeometry x="20" y="945" width="60" height="5" as="geometry" />
        </mxCell>
        <mxCell id="riecOVi5T7TGMhFxxTop-20" value="Generate Reports" style="text;html=1;align=center;verticalAlign=middle;whiteSpace=wrap;rounded=0;" vertex="1" parent="WIyWlLk6GJQsqaUBKTNV-1">
          <mxGeometry x="20" y="1235" width="60" height="30" as="geometry" />
        </mxCell>
        <mxCell id="riecOVi5T7TGMhFxxTop-21" value="Send Notifications" style="text;html=1;align=center;verticalAlign=middle;whiteSpace=wrap;rounded=0;" vertex="1" parent="WIyWlLk6GJQsqaUBKTNV-1">
          <mxGeometry x="20" y="1085" width="60" height="30" as="geometry" />
        </mxCell>
        <mxCell id="riecOVi5T7TGMhFxxTop-22" value="Manage dietary restrictions" style="text;html=1;align=center;verticalAlign=middle;whiteSpace=wrap;rounded=0;" vertex="1" parent="WIyWlLk6GJQsqaUBKTNV-1">
          <mxGeometry x="10" y="785" width="60" height="30" as="geometry" />
        </mxCell>
        <mxCell id="riecOVi5T7TGMhFxxTop-23" value="Manage Loyalty Programs" style="text;html=1;align=center;verticalAlign=middle;whiteSpace=wrap;rounded=0;" vertex="1" parent="WIyWlLk6GJQsqaUBKTNV-1">
          <mxGeometry x="20" y="1395" width="60" height="30" as="geometry" />
        </mxCell>
        <mxCell id="riecOVi5T7TGMhFxxTop-24" value="" style="endArrow=classic;html=1;rounded=0;exitX=1;exitY=0.3333333333333333;exitDx=0;exitDy=0;exitPerimeter=0;entryX=0;entryY=0.5;entryDx=0;entryDy=0;" edge="1" parent="WIyWlLk6GJQsqaUBKTNV-1" source="riecOVi5T7TGMhFxxTop-0" target="riecOVi5T7TGMhFxxTop-4">
          <mxGeometry width="50" height="50" relative="1" as="geometry">
            <mxPoint x="-120" y="200" as="sourcePoint" />
            <mxPoint x="-30" y="200" as="targetPoint" />
          </mxGeometry>
        </mxCell>
        <mxCell id="riecOVi5T7TGMhFxxTop-25" value="" style="endArrow=classic;html=1;rounded=0;exitX=1;exitY=0.3333333333333333;exitDx=0;exitDy=0;exitPerimeter=0;entryX=0;entryY=0.5;entryDx=0;entryDy=0;" edge="1" parent="WIyWlLk6GJQsqaUBKTNV-1" target="riecOVi5T7TGMhFxxTop-5" source="riecOVi5T7TGMhFxxTop-0">
          <mxGeometry width="50" height="50" relative="1" as="geometry">
            <mxPoint x="-140" y="200" as="sourcePoint" />
            <mxPoint x="-10" y="292" as="targetPoint" />
          </mxGeometry>
        </mxCell>
        <mxCell id="riecOVi5T7TGMhFxxTop-26" value="" style="endArrow=classic;html=1;rounded=0;entryX=0;entryY=0.5;entryDx=0;entryDy=0;exitX=1;exitY=0.3333333333333333;exitDx=0;exitDy=0;exitPerimeter=0;" edge="1" parent="WIyWlLk6GJQsqaUBKTNV-1" target="riecOVi5T7TGMhFxxTop-6" source="riecOVi5T7TGMhFxxTop-0">
          <mxGeometry width="50" height="50" relative="1" as="geometry">
            <mxPoint x="-140" y="200" as="sourcePoint" />
            <mxPoint x="-90" y="150" as="targetPoint" />
          </mxGeometry>
        </mxCell>
        <mxCell id="riecOVi5T7TGMhFxxTop-27" value="" style="endArrow=classic;html=1;rounded=0;entryX=0;entryY=0.5;entryDx=0;entryDy=0;exitX=1;exitY=0.3333333333333333;exitDx=0;exitDy=0;exitPerimeter=0;" edge="1" parent="WIyWlLk6GJQsqaUBKTNV-1" target="riecOVi5T7TGMhFxxTop-7" source="riecOVi5T7TGMhFxxTop-0">
          <mxGeometry width="50" height="50" relative="1" as="geometry">
            <mxPoint x="-140" y="200" as="sourcePoint" />
            <mxPoint x="-90" y="150" as="targetPoint" />
          </mxGeometry>
        </mxCell>
        <mxCell id="riecOVi5T7TGMhFxxTop-28" value="" style="endArrow=classic;html=1;rounded=0;entryX=0;entryY=0.5;entryDx=0;entryDy=0;exitX=1;exitY=0.3333333333333333;exitDx=0;exitDy=0;exitPerimeter=0;" edge="1" parent="WIyWlLk6GJQsqaUBKTNV-1" target="riecOVi5T7TGMhFxxTop-8" source="riecOVi5T7TGMhFxxTop-0">
          <mxGeometry width="50" height="50" relative="1" as="geometry">
            <mxPoint x="-140" y="200" as="sourcePoint" />
            <mxPoint x="-90" y="150" as="targetPoint" />
          </mxGeometry>
        </mxCell>
        <mxCell id="riecOVi5T7TGMhFxxTop-29" value="" style="endArrow=classic;html=1;rounded=0;exitX=1;exitY=0.3333333333333333;exitDx=0;exitDy=0;exitPerimeter=0;" edge="1" parent="WIyWlLk6GJQsqaUBKTNV-1" source="riecOVi5T7TGMhFxxTop-1" target="riecOVi5T7TGMhFxxTop-9">
          <mxGeometry width="50" height="50" relative="1" as="geometry">
            <mxPoint x="-130" y="510" as="sourcePoint" />
            <mxPoint x="-90" y="450" as="targetPoint" />
          </mxGeometry>
        </mxCell>
        <mxCell id="riecOVi5T7TGMhFxxTop-30" value="" style="endArrow=classic;html=1;rounded=0;entryX=1;entryY=0.5;entryDx=0;entryDy=0;" edge="1" parent="WIyWlLk6GJQsqaUBKTNV-1" target="riecOVi5T7TGMhFxxTop-12">
          <mxGeometry width="50" height="50" relative="1" as="geometry">
            <mxPoint x="439" y="910" as="sourcePoint" />
            <mxPoint x="90" y="1441.04" as="targetPoint" />
            <Array as="points">
              <mxPoint x="439" y="910" />
            </Array>
          </mxGeometry>
        </mxCell>
        <mxCell id="riecOVi5T7TGMhFxxTop-31" value="" style="endArrow=classic;html=1;rounded=0;entryX=0.008;entryY=0.4;entryDx=0;entryDy=0;entryPerimeter=0;exitX=0.5;exitY=0.5;exitDx=0;exitDy=0;exitPerimeter=0;" edge="1" parent="WIyWlLk6GJQsqaUBKTNV-1" target="riecOVi5T7TGMhFxxTop-10" source="riecOVi5T7TGMhFxxTop-2">
          <mxGeometry width="50" height="50" relative="1" as="geometry">
            <mxPoint x="-160" y="1120" as="sourcePoint" />
            <mxPoint x="-110" y="1070" as="targetPoint" />
          </mxGeometry>
        </mxCell>
        <mxCell id="riecOVi5T7TGMhFxxTop-32" value="" style="endArrow=classic;html=1;rounded=0;exitX=0.5;exitY=0.5;exitDx=0;exitDy=0;exitPerimeter=0;entryX=0;entryY=0.5;entryDx=0;entryDy=0;" edge="1" parent="WIyWlLk6GJQsqaUBKTNV-1" target="riecOVi5T7TGMhFxxTop-13" source="riecOVi5T7TGMhFxxTop-2">
          <mxGeometry width="50" height="50" relative="1" as="geometry">
            <mxPoint x="-160" y="1120" as="sourcePoint" />
            <mxPoint x="-110" y="1070" as="targetPoint" />
          </mxGeometry>
        </mxCell>
        <mxCell id="riecOVi5T7TGMhFxxTop-33" value="" style="endArrow=classic;html=1;rounded=0;entryX=0;entryY=0.5;entryDx=0;entryDy=0;exitX=1;exitY=0.3333333333333333;exitDx=0;exitDy=0;exitPerimeter=0;" edge="1" parent="WIyWlLk6GJQsqaUBKTNV-1" target="riecOVi5T7TGMhFxxTop-11" source="riecOVi5T7TGMhFxxTop-0">
          <mxGeometry width="50" height="50" relative="1" as="geometry">
            <mxPoint x="-140" y="200" as="sourcePoint" />
            <mxPoint x="-90" y="150" as="targetPoint" />
          </mxGeometry>
        </mxCell>
      </root>
    </mxGraphModel>
  </diagram>
</mxfile>
